#!OML:ASF C:\ViconDB\ViconDB\414\Spring2016\041811\Spring2016.ASF
:FULLY-SPECIFIED
:DEGREES
202
root 7.66425 17.6567 -24.3494 -178.477 -0.493163 -177.549
lowerback 22.2186 1.00214 -1.82187
upperback 4.10402 0.0755816 -0.271043
thorax -7.9216 -0.253952 0.771173
lowerneck -8.22777 -7.29631 -17.4448
upperneck 5.96832 -11.1257 25.0166
head 5.68721 -5.18444 10.1544
rclavicle 2.98177e-015 7.95139e-016
rhumerus -64.6049 2.04884 -81.54
rradius 80.0425
rwrist 10.4267
rhand -35.1586 -13.7778
rfingers 7.12502
rthumb -8.29787 -43.5948
lclavicle 2.98177e-015 7.95139e-016
lhumerus -61.5973 -10.1391 73.0323
lradius 64.5091
lwrist -2.56571
lhand -35.4812 13.54
lfingers 7.12502
lthumb -8.60917 43.3445
rfemur -32.8244 -18.2788 23.971
rtibia 41.2569
rfoot -19.8922 -2.00921
rtoes -11.8975
lfemur -36.2533 11.0352 -11.7921
ltibia 43.2201
lfoot -3.63507 -4.72622
ltoes -7.33049
203
root 7.63573 17.27 -24.5293 -179.009 -0.260895 -177.667
lowerback 23.6612 1.09812 -1.7716
upperback 4.3478 0.0680561 -0.34147
thorax -8.41001 -0.301223 0.675561
lowerneck -7.97794 -7.02539 -17.3964
upperneck 5.16993 -10.6232 25.0872
head 5.2955 -4.97383 10.2276
rclavicle -2.18663e-015 1.59028e-015
rhumerus -64.862 0.266699 -81.5854
rradius 76.6583
rwrist 11.4537
rhand -35.1549 -13.6279
rfingers 7.12502
rthumb -8.2943 -43.4451
lclavicle -2.18663e-015 1.59028e-015
lhumerus -61.8598 -8.038 73.1068
lradius 60.6629
lwrist -4.06428
lhand -35.3145 13.4332
lfingers 7.12502
lthumb -8.44829 43.2442
rfemur -35.0755 -17.6008 23.6173
rtibia 47.0932
rfoot -16.5493 -3.7346
rtoes -11.3492
lfemur -38.4914 12.1209 -12.2245
ltibia 48.8917
lfoot -7.60091 -5.30015
ltoes -5.91203
204
root 7.61072 16.9134 -24.6759 -179.832 -0.310779 -177.359
lowerback 25.5351 1.06963 -1.13434
upperback 4.70469 0.0144209 -0.293485
thorax -8.98049 -0.403072 0.391417
lowerneck -7.77156 -6.8427 -17.3603
upperneck 4.29273 -10.2173 25.1227
head 4.9123 -4.80928 10.274
rclavicle -5.56597e-015 -7.15625e-015
rhumerus -64.8131 -1.62793 -81.4214
rradius 73.0576
rwrist 12.2506
rhand -34.7038 -13.7895
rfingers 7.12502
rthumb -7.85894 -43.6234
lclavicle -5.56597e-015 -7.15625e-015
lhumerus -61.7144 -5.76849 72.8996
lradius 56.795
lwrist -5.3804
lhand -34.7133 13.333
lfingers 7.12502
lthumb -7.86807 43.1666
rfemur -37.3485 -16.909 23.4494
rtibia 53.287
rfoot -13.9199 -4.51706
rtoes -10.3646
lfemur -40.5295 12.9996 -12.0644
ltibia 54.3302
lfoot -10.8613 -6.0364
ltoes -6.26954
205
root 7.58495 16.5476 -24.8117 -180.557 -0.508206 -177.551
lowerback 27.3807 1.03247 -0.865762
upperback 5.08743 -0.167437 -0.410081
thorax -9.49021 -0.565755 0.183132
lowerneck -7.70808 -6.68098 -17.2832
upperneck 3.37188 -9.82744 25.1554
head 4.54643 -4.64763 10.3056
rclavicle -1.98785e-015 1.90833e-014
rhumerus -64.2641 -3.6315 -81.3822
rradius 68.9882
rwrist 11.8718
rhand -34.7164 -13.88
rfingers 7.12502
rthumb -7.87105 -43.7134
lclavicle -1.98785e-015 1.90833e-014
lhumerus -61.1302 -3.33233 72.431
lradius 52.8689
lwrist -5.80201
lhand -33.7667 13.3946
lfingers 7.12502
lthumb -6.95434 43.2603
rfemur -39.9671 -16.9592 22.7167
rtibia 59.4134
rfoot -12.9906 -5.27276
rtoes -8.47147
lfemur -42.6465 13.6817 -12.5126
ltibia 59.4541
lfoot -13.6377 -6.27636
ltoes -6.58329
206
root 7.55977 16.1986 -24.9705 -181.033 -0.615078 -177.716
lowerback 29.0149 1.0249 -0.613776
upperback 5.34895 -0.280093 -0.528216
thorax -10.0146 -0.684101 -0.0393745
lowerneck -7.61575 -6.56119 -17.3481
upperneck 2.4932 -9.52686 25.338
head 4.22737 -4.53511 10.4111
rclavicle -6.16232e-015 -1.51076e-014
rhumerus -63.5793 -5.80563 -80.9132
rradius 64.3214
rwrist 13.3084
rhand -34.3432 -14.0836
rfingers 7.12502
rthumb -7.51079 -43.9302
lclavicle -6.16232e-015 -1.51076e-014
lhumerus -60.4401 -1.01325 71.9376
lradius 48.4031
lwrist -6.83933
lhand -33.2706 14.1256
lfingers 7.12502
lthumb -6.47544 44.0067
rfemur -42.5741 -17.9502 22.2627
rtibia 65.0345
rfoot -12.7534 -6.33493
rtoes -6.34888
lfemur -44.67 14.4701 -12.9647
ltibia 64.0854
lfoot -15.9877 -6.31676
ltoes -6.87925
207
root 7.56161 15.9255 -25.1392 -180.251 -0.801823 -178.128
lowerback 29.4996 1.10705 -1.18288
upperback 5.37807 -0.388991 -0.549417
thorax -10.2242 -0.728469 0.310968
lowerneck -7.60279 -6.45971 -17.5164
upperneck 1.46395 -9.21596 25.577
head 3.8878 -4.42128 10.5557
rclavicle -2.18663e-015 2.78299e-015
rhumerus -62.4978 -8.28536 -79.953
rradius 59.3943
rwrist 15.2052
rhand -33.5911 -14.1837
rfingers 7.12502
rthumb -6.78489 -44.055
lclavicle -2.18663e-015 2.78299e-015
lhumerus -59.3554 1.63261 71.2602
lradius 43.7335
lwrist -8.01026
lhand -32.0178 15.435
lfingers 7.12502
lthumb -5.26591 45.3496
rfemur -46.1291 -18.6487 22.1608
rtibia 69.8406
rfoot -11.9694 -6.81726
rtoes -4.48249
lfemur -47.6815 14.958 -13.6637
ltibia 68.1775
lfoot -17.4559 -6.50045
ltoes -8.06697
